<?xml version="1.0" standalone="no"?>
<!DOCTYPE svg PUBLIC "-//W3C//DTD SVG 20010904//EN"
 "http://www.w3.org/TR/2001/REC-SVG-20010904/DTD/svg10.dtd">
<svg version="1.0" xmlns="http://www.w3.org/2000/svg"
 width="1920.000000pt" height="700.000000pt" viewBox="0 0 1920.000000 700.000000"
 preserveAspectRatio="xMidYMid meet">
<metadata>
Created by potrace 1.16, written by Peter Selinger 2001-2019
</metadata>
<g transform="translate(0.000000,700.000000) scale(0.100000,-0.100000)"
fill="#000000" stroke="none">
<path d="M0 3500 l0 -3500 9600 0 9600 0 0 3500 0 3500 -9600 0 -9600 0 0
-3500z m7770 -617 c0 -118 3 -145 15 -149 16 -6 11 -24 -6 -24 -6 0 -7 5 -3
12 5 8 2 9 -9 5 -9 -3 -24 1 -34 11 -15 16 -16 16 -11 0 4 -9 1 -19 -7 -22
-10 -3 -12 0 -8 11 5 13 3 14 -17 3 -68 -36 -154 42 -142 130 8 65 101 117
147 83 29 -20 33 -16 33 30 0 23 1 44 1 47 1 3 10 6 21 6 19 0 20 -7 20 -143z
m-1358 105 c-2 -13 -9 -27 -14 -33 -8 -7 -9 -6 -4 3 5 8 -2 12 -23 12 l-31 0
0 -119 c0 -109 -2 -119 -19 -124 -11 -3 -22 -2 -25 1 -3 3 -6 59 -6 124 l0
118 -34 0 c-25 0 -35 5 -39 20 -6 25 -4 25 105 23 91 -1 93 -2 90 -25z m5469
-5 c1 -10 1 -21 0 -25 0 -5 10 -8 24 -8 18 0 25 -5 25 -20 0 -15 -7 -20 -25
-20 -25 0 -26 -1 -24 -70 2 -65 4 -71 25 -76 14 -4 24 -14 24 -24 0 -16 -6
-18 -37 -13 -48 7 -63 26 -63 80 0 27 -5 43 -12 44 -10 0 -10 2 0 6 17 7 15
42 -3 49 -8 4 -15 15 -15 25 0 10 7 19 15 19 8 0 14 3 14 8 -5 29 3 42 26 42
17 0 25 -6 26 -17z m1049 -8 c0 -20 5 -25 25 -25 18 0 25 -5 25 -20 0 -15 -7
-20 -25 -20 -24 0 -25 -2 -25 -70 0 -66 1 -70 25 -76 43 -11 30 -34 -19 -34
-51 0 -54 6 -57 112 -1 42 -6 66 -13 65 -6 -1 -12 8 -14 21 -2 15 2 22 12 22
10 0 16 9 16 25 0 20 5 25 25 25 20 0 25 -5 25 -25z m-5832 -12 c-1 -5 4 -21
10 -36 7 -16 12 -33 12 -38 0 -6 4 -8 9 -4 5 3 13 0 17 -6 5 -8 3 -9 -6 -4
-13 8 -7 -21 14 -62 11 -21 14 -17 41 54 18 49 35 78 47 81 10 2 15 9 11 16
-3 7 -1 6 7 -1 11 -10 9 -24 -13 -79 -14 -36 -23 -73 -20 -81 4 -10 2 -14 -4
-10 -13 8 -57 -98 -47 -114 4 -7 3 -9 -4 -5 -12 7 -27 -28 -18 -43 4 -5 -2 -8
-11 -6 -10 1 -25 -1 -35 -6 -19 -10 -19 0 5 54 9 21 17 43 19 50 4 20 -23 88
-32 82 -5 -3 -12 0 -16 6 -4 8 -3 9 4 5 17 -10 15 19 -1 36 -8 7 -12 18 -10
24 2 7 -2 18 -9 25 -19 20 -16 42 7 56 26 14 25 14 23 6z m1206 -15 c-5 -8 -1
-9 10 -5 10 4 36 7 57 7 29 0 38 3 33 13 -4 6 5 1 19 -12 15 -14 27 -20 27
-14 0 5 7 10 15 10 12 0 12 -3 -2 -17 -17 -15 -19 -15 -36 4 -14 16 -14 13 2
-11 17 -25 21 -47 21 -115 0 -81 -1 -85 -22 -83 -20 1 -21 6 -19 69 2 49 -2
74 -14 93 -16 24 -17 24 -31 6 -13 -16 -13 -16 -8 0 4 12 1 17 -13 17 -29 0
-44 -36 -43 -103 1 -34 1 -66 0 -72 -1 -5 -2 -13 -2 -16 1 -4 -10 -2 -23 5
-23 10 -25 16 -25 83 0 52 -4 76 -16 87 -19 20 -64 14 -81 -11 -17 -22 -17
-36 0 -27 10 6 10 4 0 -7 -7 -7 -13 -37 -13 -66 0 -46 -3 -53 -20 -53 -19 0
-20 7 -20 100 0 55 0 103 0 108 -1 4 8 8 20 10 11 2 20 -1 20 -7 0 -6 7 -8 15
-5 8 4 13 9 11 13 -4 5 11 6 71 2 7 -1 21 -10 31 -22 16 -17 20 -18 25 -5 4 9
2 18 -4 21 -5 4 -7 11 -3 16 3 5 10 7 15 3 5 -3 6 -10 3 -16z m1522 -1 c-4 6
-1 15 6 19 7 4 10 4 6 -1 -4 -4 0 -14 10 -22 15 -12 15 -12 0 -7 -10 3 -20 -2
-28 -16 -6 -11 -15 -18 -19 -16 -4 3 -18 -2 -30 -11 -21 -14 -22 -22 -19 -92
3 -76 3 -76 -22 -75 -24 1 -25 4 -30 75 -3 41 -3 91 -1 113 3 37 4 38 37 33
19 -3 32 -2 29 3 -3 4 4 6 15 3 12 -3 20 0 20 8 0 8 6 5 16 -7 8 -10 13 -14
10 -7z m1904 0 c27 -4 30 -14 37 -136 3 -58 1 -87 -8 -95 -9 -8 -10 -8 -4 2 5
9 1 12 -11 10 -17 -3 -19 6 -22 77 -2 43 -8 85 -14 92 -14 17 -52 18 -42 1 5
-10 4 -10 -6 -1 -10 9 -17 9 -26 2 -11 -9 -10 -16 2 -37 12 -20 12 -23 1 -9
-8 9 -16 17 -19 17 -3 0 -5 -31 -4 -70 1 -72 2 -70 -40 -70 -3 0 -6 48 -6 107
l0 107 27 8 c21 5 25 4 21 -8 -4 -11 -2 -12 14 -4 10 5 28 10 40 10 14 0 19 4
14 13 -6 9 -5 9 7 0 9 -7 26 -14 39 -16z m1005 13 c-3 -5 2 -10 12 -10 35 0
74 -42 80 -88 l6 -42 -39 -1 c-22 0 -60 0 -86 1 -53 2 -58 -5 -28 -38 27 -29
52 -28 89 4 50 41 73 8 25 -37 -20 -19 -35 -23 -70 -21 -78 4 -90 7 -91 22 -1
8 -8 38 -16 65 -8 29 -11 52 -5 56 5 3 10 15 11 27 0 11 4 19 8 16 4 -2 11 1
14 7 4 6 26 19 49 29 50 23 49 22 41 10z m-4695 -122 l0 -110 -32 6 c-39 7
-64 -6 -52 -25 6 -11 5 -12 -7 -2 -12 10 -18 10 -29 0 -10 -9 -11 -9 -6 1 7
11 3 14 -26 16 -7 1 -22 11 -34 23 -16 18 -23 20 -34 10 -10 -10 -11 -9 -4 3
5 8 7 38 5 67 -3 60 15 95 60 113 33 14 98 7 112 -12 6 -9 7 -7 4 8 -4 17 0
20 19 16 24 -4 24 -7 24 -114z m868 98 c19 -4 23 -2 17 12 -5 13 -3 14 6 5 13
-13 3 -37 -12 -28 -5 4 -9 1 -9 -4 0 -6 4 -11 10 -11 5 0 7 -7 4 -15 -4 -8
-14 -15 -24 -15 -10 0 -23 7 -30 15 -17 21 -64 20 -56 -1 3 -8 2 -12 -4 -9 -6
3 -10 2 -10 -3 0 -5 23 -18 52 -28 83 -30 98 -87 32 -119 -46 -21 -86 -12
-119 27 -21 25 -24 33 -12 39 7 5 27 4 43 -1 16 -4 22 -9 14 -9 -12 -1 -12 -4
2 -17 20 -20 68 -12 68 12 0 16 -39 35 -54 27 -4 -3 -11 -1 -15 5 -3 6 -13 12
-21 14 -18 4 -39 21 -34 29 2 3 4 22 6 42 1 20 4 34 6 32 3 -2 13 2 24 9 18
13 33 12 116 -8z m1082 13 c0 -8 5 -7 15 1 9 7 18 10 22 6 3 -3 1 -6 -7 -6
-10 0 -10 -3 0 -15 7 -8 15 -13 19 -11 4 3 7 -3 8 -12 3 -36 17 -77 27 -84 12
-8 -22 -10 -121 -8 -64 1 -72 -4 -50 -33 20 -27 59 -31 83 -8 12 11 30 21 40
23 15 2 19 -3 17 -25 -1 -19 2 -25 10 -21 9 5 8 3 0 -6 -16 -17 -39 -21 -124
-23 -60 -2 -65 0 -61 17 3 11 1 17 -4 13 -17 -10 -25 103 -9 137 6 15 5 17 -5
11 -9 -5 -11 -4 -6 4 4 6 12 9 17 6 5 -4 9 -2 9 3 0 11 42 29 80 35 14 2 28 5
33 6 4 0 7 -4 7 -10z m1285 -1 c5 3 7 2 3 -3 -4 -4 -1 -17 7 -29 10 -13 15
-46 15 -96 0 -42 4 -80 9 -85 6 -6 -4 -10 -29 -10 -25 0 -36 3 -30 9 14 14 13
136 -1 136 -5 0 -8 4 -5 9 8 13 -15 27 -46 29 -33 2 -60 -34 -37 -49 11 -7 11
-9 -1 -9 -12 0 -15 -13 -13 -60 1 -57 0 -60 -23 -60 -22 0 -24 4 -24 48 0 26
-6 54 -12 61 -11 11 -10 12 0 6 11 -6 13 4 10 46 -3 53 -2 54 26 57 18 2 26 0
21 -7 -9 -16 11 -13 24 3 8 10 22 11 54 6 23 -5 46 -6 52 -2z m1139 -10 c-4
-7 0 -7 12 0 25 13 76 18 92 9 6 -5 17 -5 22 -2 6 4 9 3 8 -2 -1 -4 3 -17 9
-29 6 -11 13 -58 14 -104 2 -82 1 -84 -21 -84 -22 0 -23 2 -21 72 2 48 -1 72
-9 72 -6 0 -9 4 -6 9 15 24 -63 41 -83 18 -12 -16 -20 -145 -9 -162 4 -6 -9
-10 -32 -10 -25 0 -36 3 -30 10 6 5 10 55 10 111 0 89 2 103 18 107 22 5 34
-2 26 -15z m-5810 1 c29 -13 59 -70 54 -101 -3 -19 -9 -20 -85 -20 -90 1 -107
-12 -58 -44 26 -17 61 -15 58 4 -2 6 3 9 11 6 7 -3 16 2 19 10 7 17 47 10 47
-8 0 -16 -38 -49 -73 -64 -17 -7 -25 -17 -21 -24 4 -7 3 -8 -5 -4 -6 4 -9 11
-6 15 2 5 -14 13 -36 20 -30 9 -44 20 -53 42 -7 16 -15 27 -17 24 -7 -7 7 86
16 108 17 40 97 59 149 36z m358 -6 c17 -15 18 -15 18 1 0 12 7 16 20 14 12
-2 21 -6 20 -10 0 -5 0 -53 0 -108 0 -93 -1 -100 -20 -100 -11 0 -20 5 -20 10
0 7 -8 6 -22 -1 -27 -15 -89 -30 -84 -20 3 4 -8 12 -23 19 -15 7 -33 24 -39
38 -15 31 -15 99 -2 124 24 45 116 65 152 33z m388 -63 c0 -74 2 -81 25 -96
21 -14 31 -15 51 -5 14 6 22 16 19 21 -3 6 -1 10 4 10 7 0 11 29 11 76 0 70 1
75 20 72 12 -2 21 -6 20 -10 0 -5 0 -53 0 -108 0 -93 -1 -100 -20 -100 -11 0
-20 4 -20 9 0 5 -14 3 -30 -6 -21 -10 -40 -12 -58 -7 -15 4 -30 7 -34 6 -15
-3 -38 83 -38 148 0 68 1 70 25 70 25 0 25 -1 25 -80z m1321 61 c22 -17 24
-17 37 -2 11 14 12 13 3 -5 -7 -15 -6 -34 4 -67 8 -26 11 -47 7 -47 -4 0 -13
-13 -20 -29 -17 -40 -73 -65 -124 -57 -22 4 -37 3 -34 -2 3 -5 -1 -9 -9 -9
-10 0 -12 4 -5 12 7 9 6 16 -4 24 -24 20 -55 128 -33 114 5 -3 8 0 5 8 -2 7 4
22 13 33 10 10 16 24 12 29 -3 6 -2 7 3 4 6 -3 16 -2 24 4 26 16 96 10 121
-10z m557 3 c20 -14 22 -14 22 0 0 9 9 16 20 16 19 0 20 -7 20 -105 0 -85 3
-107 15 -111 16 -6 11 -24 -6 -24 -6 0 -7 5 -3 12 5 8 2 9 -9 5 -9 -3 -23 1
-32 9 -8 9 -15 11 -15 6 0 -5 -6 -9 -12 -10 -7 -1 -27 -4 -44 -8 -19 -3 -43 0
-60 9 -16 8 -36 12 -44 10 -13 -4 -13 -3 0 6 12 8 12 13 2 23 -6 6 -12 36 -12
66 0 46 4 58 29 83 34 33 91 40 129 13z m400 5 c6 -1 10 -4 7 -7 -2 -3 2 -14
10 -26 8 -11 15 -24 15 -28 0 -16 -40 -8 -60 12 -31 31 -76 26 -95 -10 -20
-39 -19 -62 6 -94 25 -31 61 -34 89 -6 11 11 29 20 41 20 11 0 18 4 15 9 -3 5
2 15 12 22 15 12 16 12 5 -2 -7 -9 -11 -18 -8 -21 3 -2 -10 -22 -29 -44 -30
-35 -38 -39 -81 -39 -40 0 -51 5 -76 33 -47 53 -36 145 22 178 21 12 59 13
127 3z m641 -15 c17 -14 31 -32 31 -40 0 -21 -34 -17 -55 6 -18 20 -60 26 -81
12 -38 -25 -38 -101 0 -127 28 -20 52 -19 76 5 21 21 60 27 60 10 0 -21 -48
-59 -81 -65 -20 -4 -47 -1 -64 6 -17 7 -33 12 -37 11 -5 -1 -7 4 -5 11 1 6 -3
11 -8 10 -6 -1 -12 25 -13 58 -3 56 -1 62 31 94 45 45 100 48 146 9z m226 16
c3 -5 11 -10 16 -10 6 0 7 5 3 12 -4 7 -3 8 5 4 6 -4 9 -11 6 -15 -2 -5 2 -17
10 -27 8 -10 15 -34 15 -51 l0 -33 -85 0 c-48 0 -85 -4 -85 -10 0 -17 43 -50
65 -50 12 0 30 9 40 20 20 23 55 27 55 7 0 -19 -41 -54 -72 -62 -38 -10 -93
11 -114 43 -18 26 -29 146 -14 137 4 -3 18 7 30 20 19 20 33 25 71 25 26 0 51
-4 54 -10z m508 -1 c14 -6 31 -23 38 -38 8 -14 17 -28 21 -31 4 -3 5 -16 1
-28 -5 -20 -11 -22 -89 -22 -88 0 -99 -7 -67 -42 21 -24 65 -23 88 2 20 23 55
27 55 7 0 -21 -42 -54 -76 -61 -76 -16 -141 48 -131 128 10 76 89 118 160 85z
m1120 0 c14 -6 31 -23 38 -38 8 -14 17 -29 22 -32 4 -3 4 -16 -1 -28 -8 -22
-14 -23 -90 -23 -89 1 -106 -12 -57 -44 26 -17 61 -15 58 4 -2 6 3 9 11 6 7
-3 16 2 19 10 8 20 44 9 50 -15 3 -10 2 -17 -3 -14 -4 3 -14 -2 -21 -11 -7 -8
-28 -22 -46 -29 -22 -9 -32 -19 -27 -26 4 -8 3 -9 -5 -5 -6 4 -9 11 -6 16 3 4
-7 11 -23 15 -32 8 -72 43 -72 62 0 8 -4 12 -8 9 -9 -5 1 79 13 107 17 40 97
59 148 36z"/>
<path d="M7609 2882 c-26 -33 -24 -68 6 -97 31 -32 55 -32 89 0 28 26 32 50
14 90 -13 28 -11 27 -56 29 -25 2 -38 -4 -53 -22z"/>
<path d="M7897 2904 c-12 -12 -8 -26 6 -18 7 4 9 3 4 -2 -5 -5 -12 -9 -15 -9
-17 -1 -32 -18 -32 -36 0 -11 4 -17 10 -14 5 3 7 0 4 -8 -6 -18 33 -57 56 -57
27 0 70 46 70 76 0 20 -4 25 -16 20 -14 -5 -15 -4 -4 9 11 14 7 19 -12 16 -5
0 -7 4 -5 10 2 13 -55 24 -66 13z"/>
<path d="M6861 2884 c-11 -15 -21 -34 -21 -43 0 -25 25 -66 38 -63 7 1 12 -2
12 -8 0 -17 35 -11 58 10 12 11 24 31 28 44 7 27 -12 70 -27 61 -5 -4 -8 -1
-7 7 2 8 -9 14 -28 16 -25 2 -37 -3 -53 -24z"/>
<path d="M8562 2894 c-23 -16 -33 -72 -9 -58 7 5 6 1 -3 -10 -13 -17 -12 -21
13 -42 34 -29 47 -30 81 -3 19 15 26 30 26 55 0 62 -58 94 -108 58z"/>
<path d="M9130 2882 c-16 -19 -20 -35 -16 -56 7 -32 40 -66 66 -66 24 0 70 45
70 69 0 22 -20 70 -29 72 -55 11 -71 7 -91 -19z"/>
</g>
</svg>
